<?xml version="1.0" encoding="utf-8"?>
<!-- Generator: Adobe Illustrator 25.4.1, SVG Export Plug-In . SVG Version: 6.00 Build 0)  -->
<svg version="1.1" id="Layer_1" xmlns="http://www.w3.org/2000/svg" xmlns:xlink="http://www.w3.org/1999/xlink" x="0px" y="0px"
	 viewBox="0 0 409.6 409.6" style="enable-background:new 0 0 409.6 409.6;" xml:space="preserve">
<style type="text/css">
	.st0{fill:none;}
</style>
<path class="st0" d="M0,0"/>
<path d="M204.8,409.6C91.9,409.6,0,317.7,0,204.8S91.9,0,204.8,0s204.8,91.9,204.8,204.8S317.7,409.6,204.8,409.6z M204.8,23.5
	c-100,0-181.3,81.3-181.3,181.3s81.3,181.3,181.3,181.3s181.3-81.3,181.3-181.3S304.8,23.5,204.8,23.5L204.8,23.5z M0,0"/>
<g>
	<path d="M180.2,268.6l-24.9-36h-1.5h-26v36H97.9V139.5h55.9c34.5,0,56.1,17.9,56.1,46.9c0,19.4-9.8,33.6-26.6,40.8l29,41.5H180.2z
		 M152.1,163.8h-24.4v45h24.4c18.3,0,27.5-8.5,27.5-22.5C179.6,172.1,170.4,163.8,152.1,163.8z"/>
	<path d="M221.9,259.4l9.6-20.7c8.9,5.7,22.3,9.6,34.5,9.6c13.3,0,18.3-3.5,18.3-9c0-16.2-60,0.4-60-39.3c0-18.8,17-32.1,45.9-32.1
		c13.7,0,28.8,3.1,38.2,8.7l-9.6,20.5c-9.8-5.5-19.6-7.4-28.6-7.4c-12.9,0-18.5,4.1-18.5,9.2c0,17,60,0.6,60,39.7
		c0,18.5-17.2,31.6-46.9,31.6C248.1,270.1,231.1,265.5,221.9,259.4z"/>
</g>
</svg>
